<?xml version="1.0"?><svg version="1.1" id="圖層_1" xmlns="http://www.w3.org/2000/svg" x="0" y="0" viewBox="0 0 100 100" xml:space="preserve"><path d="M40.5 70.5h29.2L50 59.9 13.4 79.6c-2.7 1-5.6-1.1-5.9-4.5-.2-2.4 1.1-4.6 3-5.5L47.3 47h0c.9-.3 1.8-.5 2.7-.5h0v-6.7c-5.4 0-9.8-4.4-9.8-9.8s4.4-9.8 9.8-9.8 9.8 4.4 9.8 9.8" fill="none" stroke="#333" stroke-width="3" stroke-linecap="round" stroke-miterlimit="10" stroke-linejoin="round"/><path d="M57.6 50l31.9 19.6c1.9.9 3.2 3.1 3 5.5-.3 3.4-3.2 5.5-5.9 4.5l-5.5-3H18.8" fill="none" stroke="#333" stroke-width="3" stroke-linecap="round" stroke-miterlimit="10" stroke-linejoin="round"/><metadata xmlns:d="https://loading.io/stock/">
<d:name>hanger</d:name>
<d:tags>hanger,clothes stand,coat hanger</d:tags>
<d:license>by</d:license>
<d:slug>h1u9ab</d:slug>
</metadata></svg>