<?xml version="1.0"?><svg version="1.1" id="圖層_1" xmlns="http://www.w3.org/2000/svg" x="0" y="0" viewBox="0 0 100 100" xml:space="preserve"><path d="M25.3 21.8l.3-5.1H39l-.1 1.7c0 6.1-3.8 9.2-12.6 9.2h-1.4l-3.8 64.7 17.3.3 8.1-54.9c.1-.9.6-1.6 1.2-2.2l.2-.2c-1.7-.4-2.9-1.8-2.9-3.6v-15h8v18.7h-4.3l3.6.1c.6.5 1.1 1.3 1.2 2.2l8.1 54.9 17.3-.3-3.8-64.7h-1.4c-8.9 0-12.6-3.1-12.6-9.2v-1.7h13.4l.4 7-.4-7-.5-8.2v-1H26v1l-.2 4.1" fill="none" stroke="#333" stroke-width="3" stroke-linecap="round" stroke-miterlimit="10" stroke-linejoin="round"/><metadata xmlns:d="https://loading.io/stock/">
<d:name>pants</d:name>
<d:tags>pants,trousers,slacks,clothing,dress,jeans,straights,crops</d:tags>
<d:license>by</d:license>
<d:slug>46uodf</d:slug>
</metadata></svg>