<?xml version="1.0"?><svg version="1.1" id="圖層_1" xmlns="http://www.w3.org/2000/svg" x="0" y="0" viewBox="0 0 100 100" xml:space="preserve"><path d="M62.4 7.5c-.4 16-5.7 18.7-12.4 18.7S37.9 23.7 37.6 7.7c-.9.6-1.9.1-2.7.9-.6 19.7-3.4 21.5-10.9 24.5.1.4.2.7.3 1.1l6.6 21c1.9 7.8 1.3 16-1.6 23.5l-5.5 13.9h52.5l-5.5-13.9c-3-7.5-3.5-15.7-1.6-23.5l6.6-21c.1-.4.2-.7.3-1.1-7.5-3-10.4-4.7-10.9-24.6-.9-.8-1.9-.4-2.8-1-.3 7.6-10.6 10.5-17.8 8.3" fill="none" stroke="#333" stroke-width="3" stroke-linecap="round" stroke-miterlimit="10" stroke-linejoin="round"/><metadata xmlns:d="https://loading.io/stock/">
<d:name>tank top</d:name>
<d:tags>tank top,spaghetti strap,spaghetti-strap top,underwear,pajamas,tube</d:tags>
<d:license>by</d:license>
<d:slug>vvw0qr</d:slug>
</metadata></svg>